<svg width="195" height="190" viewBox="0 0 195 190" fill="none" xmlns="http://www.w3.org/2000/svg">
<g clip-path="url(#clip0_849_31198)">
<path d="M123.794 42.7313H71.2501C70.0527 42.7328 68.9048 43.2082 68.0581 44.0534C67.2115 44.8985 66.7351 46.0443 66.7337 47.2396V163.808L66.1315 163.991L53.2416 167.932C52.6307 168.117 51.9709 168.054 51.407 167.755C50.843 167.455 50.4211 166.945 50.2338 166.336L11.8922 41.3217C11.7056 40.7119 11.7692 40.0532 12.069 39.4901C12.3688 38.9271 12.8803 38.506 13.491 38.3192L33.3543 32.2481L90.9388 14.6539L110.802 8.58279C111.104 8.48993 111.422 8.45748 111.737 8.4873C112.052 8.51712 112.357 8.60863 112.637 8.75658C112.916 8.90454 113.164 9.10603 113.365 9.34955C113.566 9.59306 113.717 9.8738 113.81 10.1757L123.611 42.1302L123.794 42.7313Z" fill="#CBC6E4"/>
<path d="M135.26 42.1307L123.448 3.61823C123.251 2.97654 122.93 2.37979 122.503 1.86209C122.075 1.34438 121.549 0.915868 120.956 0.601029C120.362 0.28619 119.712 0.0911941 119.043 0.0271923C118.374 -0.0368095 117.698 0.0314366 117.056 0.228024L89.1292 8.76065L31.5479 26.3579L3.6213 34.8935C2.32398 35.2911 1.23772 36.1863 0.600947 37.3826C-0.0358272 38.5789 -0.171087 39.9785 0.224863 41.2742L40.5957 172.894C40.9173 173.94 41.5664 174.856 42.4475 175.506C43.3286 176.157 44.3955 176.509 45.4916 176.51C45.9989 176.51 46.5033 176.434 46.9879 176.284L66.1316 170.436L66.7338 170.249V169.621L66.1316 169.805L46.8103 175.71C45.6652 176.059 44.4284 175.94 43.3712 175.379C42.3139 174.818 41.5226 173.862 41.1708 172.72L0.803088 41.0969C0.628781 40.5309 0.568031 39.9362 0.624313 39.3467C0.680596 38.7573 0.852801 38.1847 1.13108 37.6618C1.40936 37.1389 1.78824 36.676 2.24602 36.2994C2.70381 35.9229 3.2315 35.6402 3.79889 35.4675L31.7254 26.9319L89.3069 9.33771L117.233 0.802081C117.664 0.67098 118.111 0.604135 118.561 0.603716C119.527 0.605881 120.466 0.916636 121.242 1.49047C122.018 2.0643 122.59 2.87105 122.873 3.79256L134.631 42.1308L134.817 42.7319H135.444L135.26 42.1307Z" fill="#A1A6B1"/>
<path d="M36.9385 38.415C36.3581 38.4146 35.7932 38.2285 35.3266 37.8842C34.8599 37.5398 34.5161 37.0552 34.3456 36.5015L30.4674 23.8568C30.3632 23.5171 30.327 23.1603 30.361 22.8067C30.395 22.4531 30.4984 22.1096 30.6653 21.7959C30.8323 21.4822 31.0595 21.2044 31.334 20.9784C31.6086 20.7523 31.925 20.5825 32.2653 20.4785L85.2397 4.28977C85.9269 4.08044 86.6692 4.15183 87.3037 4.48827C87.9383 4.8247 88.4132 5.3987 88.6242 6.08426L92.5024 18.7291C92.712 19.4151 92.6404 20.156 92.3034 20.7894C91.9663 21.4227 91.3914 21.8968 90.7047 22.1075L37.7302 38.2963C37.4736 38.3749 37.2068 38.4149 36.9385 38.415Z" fill="#5141A4"/>
<path d="M57.2543 13.5103C60.5801 13.5103 63.2762 10.8191 63.2762 7.49929C63.2762 4.1795 60.5801 1.48828 57.2543 1.48828C53.9285 1.48828 51.2324 4.1795 51.2324 7.49929C51.2324 10.8191 53.9285 13.5103 57.2543 13.5103Z" fill="#5141A4"/>
<path d="M57.2542 11.308C59.3602 11.308 61.0674 9.60386 61.0674 7.50167C61.0674 5.39948 59.3602 3.69531 57.2542 3.69531C55.1482 3.69531 53.4409 5.39948 53.4409 7.50167C53.4409 9.60386 55.1482 11.308 57.2542 11.308Z" fill="white"/>
<path d="M181.451 174.973H79.6809C79.0024 174.972 78.3518 174.703 77.872 174.224C77.3922 173.745 77.1224 173.095 77.1216 172.418V50.6953C77.1223 50.018 77.3922 49.3686 77.872 48.8897C78.3518 48.4108 79.0024 48.1414 79.6809 48.1406H181.451C182.13 48.1414 182.78 48.4108 183.26 48.8897C183.74 49.3687 184.01 50.018 184.01 50.6953V172.418C184.009 173.095 183.74 173.745 183.26 174.224C182.78 174.703 182.13 174.972 181.451 174.973Z" fill="#EEECF6"/>
<path d="M134.63 42.1289H71.25C69.893 42.1308 68.5922 42.6697 67.6327 43.6275C66.6732 44.5853 66.1333 45.8838 66.1313 47.2383V169.803L66.7335 169.619V47.2383C66.735 46.043 67.2113 44.8972 68.058 44.052C68.9047 43.2069 70.0526 42.7315 71.25 42.73H134.817L134.63 42.1289ZM189.881 42.1289H71.25C69.893 42.1308 68.5922 42.6697 67.6327 43.6275C66.6732 44.5853 66.1333 45.8838 66.1313 47.2383V184.89C66.1333 186.245 66.6732 187.543 67.6327 188.501C68.5922 189.459 69.893 189.998 71.25 190H189.881C191.238 189.998 192.539 189.459 193.499 188.501C194.458 187.543 194.998 186.245 195 184.89V47.2383C194.998 45.8838 194.458 44.5853 193.499 43.6275C192.539 42.6697 191.238 42.1308 189.881 42.1289ZM194.398 184.89C194.396 186.085 193.92 187.231 193.073 188.076C192.227 188.922 191.079 189.397 189.881 189.399H71.25C70.0526 189.397 68.9047 188.922 68.058 188.076C67.2113 187.231 66.735 186.085 66.7335 184.89V47.2383C66.735 46.043 67.2113 44.8972 68.058 44.052C68.9047 43.2069 70.0526 42.7315 71.25 42.73H189.881C191.079 42.7315 192.227 43.2069 193.073 44.052C193.92 44.8972 194.396 46.043 194.398 47.2383V184.89Z" fill="#EEECF6"/>
<path d="M158.267 55.3529H102.865C102.147 55.3521 101.458 55.0668 100.95 54.5597C100.442 54.0526 100.156 53.3651 100.155 52.6479V39.4237C100.156 38.7066 100.442 38.019 100.95 37.5119C101.458 37.0048 102.147 36.7196 102.865 36.7188H158.267C158.985 36.7196 159.674 37.0048 160.182 37.5119C160.69 38.019 160.976 38.7066 160.976 39.4237V52.6479C160.976 53.3651 160.69 54.0526 160.182 54.5597C159.674 55.0668 158.985 55.3521 158.267 55.3529Z" fill="#5141A4"/>
<path d="M130.566 37.6197C133.892 37.6197 136.588 34.9285 136.588 31.6087C136.588 28.2889 133.892 25.5977 130.566 25.5977C127.24 25.5977 124.544 28.2889 124.544 31.6087C124.544 34.9285 127.24 37.6197 130.566 37.6197Z" fill="#5141A4"/>
<path d="M130.566 35.2717C132.592 35.2717 134.234 33.6325 134.234 31.6105C134.234 29.5884 132.592 27.9492 130.566 27.9492C128.54 27.9492 126.898 29.5884 126.898 31.6105C126.898 33.6325 128.54 35.2717 130.566 35.2717Z" fill="white"/>
</g>
<defs>
<clipPath id="clip0_849_31198">
<rect width="195" height="190" fill="white"/>
</clipPath>
</defs>
</svg>
